 <svg xmlns="http://www.w3.org/2000/svg" xmlns:xlink="http://www.w3.org/1999/xlink" version="1.1"
                    id="Layer_1" x="0px" y="0px" viewBox="210 300 192 192" enable-background="new 210 300 192 192"
                    xml:space="preserve" height="192" width="192" class=" iconic-injected-svg icon"
                    style="height: 242.45px;">
                    <path fill="#C8C8C8"
                        d="M306,300c-0.4,0-0.8,0.3-0.8,0.8l-0.2,7.4c0,0.5,0.3,0.8,0.8,0.8h0.5c0.4,0,0.7-0.3,0.7-0.8l-0.2-7.5  C306.8,300.3,306.5,300,306,300L306,300z">
                    </path>
                    <path fill="#C8C8C8"
                        d="M311,300.1c-0.4,0-0.8,0.3-0.8,0.7l-0.6,7.4c0,0.4,0.3,0.8,0.7,0.8h0.5c0.4,0,0.8-0.3,0.8-0.7l0.2-7.5  C311.8,300.5,311.5,300.2,311,300.1L311,300.1z">
                    </path>
                    <path fill="#C8C8C8"
                        d="M316,300.5c-0.4,0-0.8,0.3-0.8,0.7l-1,7.4c0,0.4,0.3,0.8,0.7,0.8h0.5c0.4,0,0.8-0.3,0.8-0.7l0.6-7.4  C316.8,301,316.5,300.6,316,300.5L316,300.5z">
                    </path>
                    <path fill="#C8C8C8"
                        d="M321,301.2c-0.4-0.1-0.8,0.2-0.9,0.6l-1.4,7.3c-0.1,0.4,0.2,0.8,0.6,0.9l0.5,0.1c0.4,0.1,0.8-0.2,0.9-0.6  l1-7.4C321.8,301.6,321.5,301.3,321,301.2L321,301.2z">
                    </path>
                    <path fill="#C8C8C8"
                        d="M325.9,302.1c-0.4-0.1-0.8,0.2-0.9,0.6l-1.7,7.3c-0.1,0.4,0.2,0.8,0.6,0.9l0.5,0.1c0.4,0.1,0.8-0.2,0.9-0.6  l1.4-7.3C326.7,302.6,326.4,302.2,325.9,302.1L325.9,302.1z">
                    </path>
                    <path fill="#C8C8C8"
                        d="M330.8,303.3c-0.4-0.1-0.8,0.1-0.9,0.5l-2.1,7.2c-0.1,0.4,0.1,0.8,0.5,0.9l0.4,0.1c0.4,0.1,0.8-0.1,0.9-0.5  l1.7-7.3C331.5,303.8,331.3,303.4,330.8,303.3L330.8,303.3z">
                    </path>
                    <path fill="#C8C8C8"
                        d="M335.6,304.7c-0.4-0.1-0.8,0.1-1,0.5l-2.5,7c-0.1,0.4,0.1,0.8,0.5,1l0.4,0.1c0.4,0.1,0.8-0.1,1-0.5l2.1-7.2  C336.3,305.3,336.1,304.8,335.6,304.7L335.6,304.7z">
                    </path>
                    <path fill="#C8C8C8"
                        d="M340.4,306.4c-0.4-0.2-0.8,0-1,0.4l-2.9,6.9c-0.2,0.4,0,0.8,0.4,1l0.4,0.2c0.4,0.2,0.8,0,1-0.4l2.5-7  C341,307,340.8,306.5,340.4,306.4L340.4,306.4z">
                    </path>
                    <path fill="#C8C8C8"
                        d="M345,308.3c-0.4-0.2-0.8,0-1,0.4l-3.2,6.7c-0.2,0.4,0,0.8,0.4,1l0.4,0.2c0.4,0.2,0.8,0,1-0.4l2.9-6.9  C345.6,308.9,345.5,308.5,345,308.3L345,308.3z">
                    </path>
                    <path fill="#C8C8C8"
                        d="M349.5,310.4c-0.4-0.2-0.8,0-1,0.3l-3.6,6.6c-0.2,0.4,0,0.8,0.3,1l0.4,0.2c0.4,0.2,0.8,0,1-0.3l3.2-6.7  C350.1,311.1,350,310.7,349.5,310.4L349.5,310.4z">
                    </path>
                    <path fill="#C8C8C8"
                        d="M354,312.8c-0.4-0.2-0.8-0.1-1,0.3l-3.9,6.4c-0.2,0.4-0.1,0.8,0.3,1l0.4,0.2c0.4,0.2,0.8,0.1,1-0.3l3.6-6.6  C354.5,313.6,354.4,313.1,354,312.8L354,312.8z">
                    </path>
                    <path fill="#C8C8C8"
                        d="M358.3,315.5c-0.4-0.2-0.8-0.1-1.1,0.2l-4.2,6.2c-0.2,0.4-0.1,0.8,0.2,1.1l0.4,0.3c0.4,0.2,0.8,0.1,1.1-0.2  l3.9-6.4C358.8,316.2,358.7,315.7,358.3,315.5L358.3,315.5z">
                    </path>
                    <path fill="#C8C8C8"
                        d="M362.4,318.3c-0.3-0.2-0.8-0.2-1.1,0.2l-4.5,5.9c-0.2,0.3-0.2,0.8,0.2,1.1l0.4,0.3c0.3,0.2,0.8,0.2,1.1-0.2  l4.2-6.2C362.9,319.1,362.8,318.6,362.4,318.3L362.4,318.3z">
                    </path>
                    <path fill="#C8C8C8"
                        d="M366.4,321.4c-0.3-0.3-0.8-0.2-1.1,0.1l-4.8,5.7c-0.3,0.3-0.2,0.8,0.1,1.1l0.4,0.3c0.3,0.3,0.8,0.2,1.1-0.1  l4.5-5.9C366.8,322.2,366.8,321.7,366.4,321.4L366.4,321.4z">
                    </path>
                    <path fill="#C8C8C8"
                        d="M370.2,324.6c-0.3-0.3-0.8-0.3-1.1,0.1l-5.1,5.4c-0.3,0.3-0.3,0.8,0.1,1.1l0.3,0.3c0.3,0.3,0.8,0.3,1.1-0.1  l4.9-5.7C370.6,325.5,370.6,325,370.2,324.6L370.2,324.6z">
                    </path>
                    <path fill="#C8C8C8"
                        d="M373.9,328.1c-0.3-0.3-0.8-0.3-1.1,0l-5.4,5.1c-0.3,0.3-0.3,0.8,0,1.1l0.3,0.3c0.3,0.3,0.8,0.3,1.1,0  l5.1-5.4C374.2,328.9,374.2,328.4,373.9,328.1L373.9,328.1z">
                    </path>
                    <path fill="#C8C8C8"
                        d="M377.3,331.7c-0.3-0.3-0.8-0.3-1.1-0.1l-5.7,4.9c-0.3,0.3-0.3,0.8-0.1,1.1l0.3,0.3c0.3,0.3,0.8,0.3,1.1,0.1  l5.4-5.1C377.6,332.6,377.7,332.1,377.3,331.7L377.3,331.7z">
                    </path>
                    <path fill="#C8C8C8"
                        d="M380.6,335.6c-0.3-0.3-0.8-0.4-1.1-0.1l-5.9,4.5c-0.3,0.3-0.4,0.8-0.1,1.1l0.3,0.4c0.3,0.3,0.8,0.4,1.1,0.1  l5.7-4.8C380.8,336.4,380.9,335.9,380.6,335.6L380.6,335.6z">
                    </path>
                    <path fill="#C8C8C8"
                        d="M383.6,339.5c-0.2-0.3-0.7-0.4-1.1-0.2l-6.2,4.2c-0.3,0.2-0.4,0.7-0.2,1.1l0.3,0.4c0.2,0.3,0.7,0.4,1.1,0.2  l5.9-4.5C383.9,340.4,383.9,339.9,383.6,339.5L383.6,339.5z">
                    </path>
                    <path fill="#C8C8C8"
                        d="M386.5,343.7c-0.2-0.4-0.7-0.5-1.1-0.2l-6.4,3.9c-0.4,0.2-0.5,0.7-0.2,1.1l0.3,0.4c0.2,0.4,0.7,0.5,1.1,0.2  l6.2-4.2C386.7,344.6,386.8,344.1,386.5,343.7L386.5,343.7z">
                    </path>
                    <path fill="#C8C8C8"
                        d="M389.1,348c-0.2-0.4-0.7-0.5-1-0.3l-6.6,3.6c-0.4,0.2-0.5,0.7-0.3,1l0.2,0.4c0.2,0.4,0.7,0.5,1,0.3l6.4-3.9  C389.2,348.9,389.4,348.4,389.1,348L389.1,348z">
                    </path>
                    <path fill="#C8C8C8"
                        d="M391.5,352.4c-0.2-0.4-0.7-0.5-1-0.3l-6.7,3.2c-0.4,0.2-0.5,0.7-0.3,1l0.2,0.4c0.2,0.4,0.7,0.5,1,0.3  l6.6-3.6C391.6,353.3,391.7,352.8,391.5,352.4L391.5,352.4z">
                    </path>
                    <path fill="#C8C8C8"
                        d="M393.7,356.9c-0.2-0.4-0.6-0.6-1-0.4l-6.9,2.9c-0.4,0.2-0.6,0.6-0.4,1l0.2,0.4c0.2,0.4,0.6,0.6,1,0.4  l6.7-3.2C393.7,357.8,393.9,357.4,393.7,356.9L393.7,356.9z">
                    </path>
                    <path fill="#C8C8C8"
                        d="M395.6,361.6c-0.2-0.4-0.6-0.6-1-0.4l-7,2.5c-0.4,0.2-0.6,0.6-0.4,1l0.2,0.4c0.2,0.4,0.6,0.6,1,0.4l6.9-2.9  C395.6,362.5,395.8,362,395.6,361.6L395.6,361.6z">
                    </path>
                    <path fill="#C8C8C8"
                        d="M397.3,366.3c-0.1-0.4-0.6-0.6-1-0.5l-7.2,2.1c-0.4,0.1-0.6,0.6-0.5,1l0.1,0.4c0.1,0.4,0.6,0.6,1,0.5l7-2.5  C397.2,367.2,397.4,366.8,397.3,366.3L397.3,366.3z">
                    </path>
                    <path fill="#C8C8C8"
                        d="M398.7,371.1c-0.1-0.4-0.5-0.7-0.9-0.5l-7.3,1.7c-0.4,0.1-0.7,0.5-0.5,0.9l0.1,0.4c0.1,0.4,0.5,0.7,0.9,0.5  l7.2-2.1C398.6,372,398.8,371.6,398.7,371.1L398.7,371.1z">
                    </path>
                    <path fill="#C8C8C8"
                        d="M399.9,376c-0.1-0.4-0.5-0.7-0.9-0.6l-7.3,1.4c-0.4,0.1-0.7,0.5-0.6,0.9l0.1,0.5c0.1,0.4,0.5,0.7,0.9,0.6  l7.3-1.7C399.7,376.9,400,376.5,399.9,376L399.9,376z">
                    </path>
                    <path fill="#C8C8C8"
                        d="M400.8,380.9c-0.1-0.4-0.5-0.7-0.9-0.6l-7.4,1c-0.4,0.1-0.7,0.5-0.6,0.9l0.1,0.5c0.1,0.4,0.5,0.7,0.9,0.6  l7.3-1.4C400.6,381.8,400.9,381.4,400.8,380.9L400.8,380.9z">
                    </path>
                    <path fill="#C8C8C8"
                        d="M401.5,385.9c0-0.4-0.4-0.7-0.8-0.7l-7.4,0.6c-0.4,0-0.7,0.4-0.7,0.8v0.5c0,0.4,0.4,0.7,0.8,0.7l7.4-1  C401.2,386.8,401.5,386.4,401.5,385.9L401.5,385.9z">
                    </path>
                    <path fill="#C8C8C8"
                        d="M401.9,390.9c0-0.4-0.4-0.8-0.8-0.7l-7.5,0.2c-0.4,0-0.7,0.4-0.7,0.8v0.5c0,0.4,0.4,0.7,0.8,0.7l7.4-0.6  C401.6,391.8,401.9,391.4,401.9,390.9L401.9,390.9z">
                    </path>
                    <path fill="#C8C8C8"
                        d="M402,396c0-0.4-0.3-0.8-0.8-0.8l-7.5-0.2c-0.4,0-0.8,0.3-0.8,0.8v0.5c0,0.4,0.3,0.8,0.8,0.8l7.5-0.2  C401.7,396.8,402,396.5,402,396L402,396z">
                    </path>
                    <path fill="#C8C8C8"
                        d="M401.9,401c0-0.4-0.3-0.8-0.7-0.8l-7.4-0.6c-0.4,0-0.8,0.3-0.8,0.7v0.5c0,0.4,0.3,0.8,0.7,0.8l7.5,0.2  C401.5,401.8,401.8,401.5,401.9,401L401.9,401z">
                    </path>
                    <path fill="#C8C8C8"
                        d="M401.5,406c0-0.4-0.3-0.8-0.7-0.8l-7.4-1c-0.4,0-0.8,0.3-0.8,0.7v0.5c0,0.4,0.3,0.8,0.7,0.8l7.4,0.6  C401,406.8,401.4,406.5,401.5,406L401.5,406z">
                    </path>
                    <path fill="#C8C8C8"
                        d="M400.8,411c0.1-0.4-0.2-0.8-0.6-0.9l-7.3-1.4c-0.4-0.1-0.8,0.2-0.9,0.6l-0.1,0.5c-0.1,0.4,0.2,0.8,0.6,0.9  l7.4,1C400.4,411.8,400.7,411.5,400.8,411L400.8,411z">
                    </path>
                    <path fill="#C8C8C8"
                        d="M399.9,415.9c0.1-0.4-0.2-0.8-0.6-0.9l-7.3-1.7c-0.4-0.1-0.8,0.2-0.9,0.6l-0.1,0.5c-0.1,0.4,0.2,0.8,0.6,0.9  l7.3,1.4C399.4,416.7,399.8,416.4,399.9,415.9L399.9,415.9z">
                    </path>
                    <path fill="#C8C8C8"
                        d="M398.7,420.8c0.1-0.4-0.1-0.8-0.5-0.9l-7.2-2.1c-0.4-0.1-0.8,0.1-0.9,0.5l-0.1,0.4c-0.1,0.4,0.1,0.8,0.5,0.9  l7.3,1.7C398.2,421.5,398.6,421.3,398.7,420.8L398.7,420.8z">
                    </path>
                    <path fill="#C8C8C8"
                        d="M397.3,425.6c0.1-0.4-0.1-0.8-0.5-1l-7-2.5c-0.4-0.1-0.8,0.1-1,0.5l-0.1,0.4c-0.1,0.4,0.1,0.8,0.5,1l7.2,2.1  C396.7,426.3,397.2,426.1,397.3,425.6L397.3,425.6z">
                    </path>
                    <path fill="#C8C8C8"
                        d="M395.6,430.4c0.2-0.4,0-0.8-0.4-1l-6.9-2.9c-0.4-0.2-0.8,0-1,0.4l-0.2,0.4c-0.2,0.4,0,0.8,0.4,1l7,2.5  C395,431,395.5,430.8,395.6,430.4L395.6,430.4z">
                    </path>
                    <path fill="#C8C8C8"
                        d="M393.7,435c0.2-0.4,0-0.8-0.4-1l-6.7-3.2c-0.4-0.2-0.8,0-1,0.4l-0.2,0.4c-0.2,0.4,0,0.8,0.4,1l6.9,2.9  C393.1,435.6,393.5,435.5,393.7,435L393.7,435z">
                    </path>
                    <path fill="#C8C8C8"
                        d="M391.6,439.5c0.2-0.4,0-0.8-0.3-1l-6.6-3.6c-0.4-0.2-0.8,0-1,0.3l-0.2,0.4c-0.2,0.4,0,0.8,0.3,1l6.7,3.2  C390.9,440.1,391.3,440,391.6,439.5L391.6,439.5z">
                    </path>
                    <path fill="#C8C8C8"
                        d="M389.2,444c0.2-0.4,0.1-0.8-0.3-1l-6.4-3.9c-0.4-0.2-0.8-0.1-1,0.3l-0.2,0.4c-0.2,0.4-0.1,0.8,0.3,1l6.6,3.6  C388.4,444.5,388.9,444.4,389.2,444L389.2,444z">
                    </path>
                    <path fill="#C8C8C8"
                        d="M386.5,448.3c0.2-0.4,0.1-0.8-0.2-1.1l-6.2-4.2c-0.4-0.2-0.8-0.1-1.1,0.2l-0.3,0.4c-0.2,0.4-0.1,0.8,0.2,1.1  l6.4,3.9C385.8,448.8,386.3,448.7,386.5,448.3L386.5,448.3z">
                    </path>
                    <path fill="#C8C8C8"
                        d="M383.7,452.4c0.2-0.3,0.2-0.8-0.2-1.1l-5.9-4.5c-0.3-0.2-0.8-0.2-1.1,0.2l-0.3,0.4c-0.2,0.3-0.2,0.8,0.2,1.1  l6.2,4.2C382.9,452.9,383.4,452.8,383.7,452.4L383.7,452.4z">
                    </path>
                    <path fill="#C8C8C8"
                        d="M380.6,456.4c0.3-0.3,0.2-0.8-0.1-1.1l-5.7-4.8c-0.3-0.3-0.8-0.2-1.1,0.1l-0.3,0.4c-0.3,0.3-0.2,0.8,0.1,1.1  l5.9,4.5C379.8,456.8,380.3,456.8,380.6,456.4L380.6,456.4z">
                    </path>
                    <path fill="#C8C8C8"
                        d="M377.4,460.2c0.3-0.3,0.3-0.8-0.1-1.1l-5.4-5.1c-0.3-0.3-0.8-0.3-1.1,0.1l-0.3,0.3c-0.3,0.3-0.3,0.8,0.1,1.1  l5.7,4.9C376.5,460.6,377,460.6,377.4,460.2L377.4,460.2z">
                    </path>
                    <path fill="#C8C8C8"
                        d="M373.9,463.9c0.3-0.3,0.3-0.8,0-1.1l-5.1-5.4c-0.3-0.3-0.8-0.3-1.1,0l-0.3,0.3c-0.3,0.3-0.3,0.8,0,1.1  l5.4,5.1C373.1,464.2,373.6,464.2,373.9,463.9L373.9,463.9z">
                    </path>
                    <path fill="#C8C8C8"
                        d="M370.3,467.3c0.3-0.3,0.3-0.8,0.1-1.1l-4.9-5.7c-0.3-0.3-0.8-0.3-1.1-0.1l-0.3,0.3c-0.3,0.3-0.3,0.8-0.1,1.1  l5.1,5.4C369.4,467.6,369.9,467.7,370.3,467.3L370.3,467.3z">
                    </path>
                    <path fill="#C8C8C8"
                        d="M366.4,470.6c0.3-0.3,0.4-0.8,0.1-1.1l-4.5-5.9c-0.3-0.3-0.8-0.4-1.1-0.1l-0.4,0.3c-0.3,0.3-0.4,0.8-0.1,1.1  l4.8,5.7C365.6,470.8,366.1,470.9,366.4,470.6L366.4,470.6z">
                    </path>
                    <path fill="#C8C8C8"
                        d="M362.5,473.6c0.3-0.2,0.4-0.7,0.2-1.1l-4.2-6.2c-0.2-0.3-0.7-0.4-1.1-0.2l-0.4,0.3c-0.3,0.2-0.4,0.7-0.2,1.1  l4.5,5.9C361.6,473.9,362.1,473.9,362.5,473.6L362.5,473.6z">
                    </path>
                    <path fill="#C8C8C8"
                        d="M358.3,476.5c0.4-0.2,0.5-0.7,0.2-1.1l-3.9-6.4c-0.2-0.4-0.7-0.5-1.1-0.2l-0.4,0.3c-0.4,0.2-0.5,0.7-0.2,1.1  l4.2,6.2C357.4,476.7,357.9,476.8,358.3,476.5L358.3,476.5z">
                    </path>
                    <path fill="#C8C8C8"
                        d="M354,479.1c0.4-0.2,0.5-0.7,0.3-1l-3.6-6.6c-0.2-0.4-0.7-0.5-1-0.3l-0.4,0.2c-0.4,0.2-0.5,0.7-0.3,1l3.9,6.4  C353.1,479.2,353.6,479.4,354,479.1L354,479.1z">
                    </path>
                    <path fill="#C8C8C8"
                        d="M349.6,481.5c0.4-0.2,0.5-0.7,0.3-1l-3.2-6.7c-0.2-0.4-0.7-0.5-1-0.3l-0.4,0.2c-0.4,0.2-0.5,0.7-0.3,1  l3.6,6.6C348.7,481.6,349.2,481.7,349.6,481.5L349.6,481.5z">
                    </path>
                    <path fill="#C8C8C8"
                        d="M345.1,483.7c0.4-0.2,0.6-0.6,0.4-1l-2.9-6.9c-0.2-0.4-0.6-0.6-1-0.4l-0.4,0.2c-0.4,0.2-0.6,0.6-0.4,1  l3.2,6.7C344.2,483.7,344.6,483.9,345.1,483.7L345.1,483.7z">
                    </path>
                    <path fill="#C8C8C8"
                        d="M340.4,485.6c0.4-0.2,0.6-0.6,0.4-1l-2.5-7c-0.2-0.4-0.6-0.6-1-0.4l-0.4,0.2c-0.4,0.2-0.6,0.6-0.4,1l2.9,6.9  C339.5,485.6,340,485.8,340.4,485.6L340.4,485.6z">
                    </path>
                    <path fill="#C8C8C8"
                        d="M335.7,487.3c0.4-0.1,0.6-0.6,0.5-1l-2.1-7.2c-0.1-0.4-0.6-0.6-1-0.5l-0.4,0.1c-0.4,0.1-0.6,0.6-0.5,1l2.5,7  C334.8,487.2,335.2,487.4,335.7,487.3L335.7,487.3z">
                    </path>
                    <path fill="#C8C8C8"
                        d="M330.9,488.7c0.4-0.1,0.7-0.5,0.5-0.9l-1.7-7.3c-0.1-0.4-0.5-0.7-0.9-0.5l-0.4,0.1c-0.4,0.1-0.7,0.5-0.5,0.9  l2.1,7.2C330,488.6,330.4,488.8,330.9,488.7L330.9,488.7z">
                    </path>
                    <path fill="#C8C8C8"
                        d="M326,489.9c0.4-0.1,0.7-0.5,0.6-0.9l-1.4-7.3c-0.1-0.4-0.5-0.7-0.9-0.6l-0.5,0.1c-0.4,0.1-0.7,0.5-0.6,0.9  l1.7,7.3C325.1,489.7,325.5,490,326,489.9L326,489.9z">
                    </path>
                    <path fill="#C8C8C8"
                        d="M321.1,490.8c0.4-0.1,0.7-0.5,0.6-0.9l-1-7.4c-0.1-0.4-0.5-0.7-0.9-0.6l-0.5,0.1c-0.4,0.1-0.7,0.5-0.6,0.9  l1.4,7.3C320.2,490.6,320.6,490.9,321.1,490.8L321.1,490.8z">
                    </path>
                    <path fill="#C8C8C8"
                        d="M316.1,491.5c0.4,0,0.7-0.4,0.7-0.8l-0.6-7.4c0-0.4-0.4-0.7-0.8-0.7h-0.5c-0.4,0-0.7,0.4-0.7,0.8l1,7.4  C315.2,491.2,315.6,491.5,316.1,491.5L316.1,491.5z">
                    </path>
                    <path fill="#C8C8C8"
                        d="M311.1,491.9c0.4,0,0.8-0.4,0.7-0.8l-0.2-7.5c0-0.4-0.4-0.7-0.8-0.7h-0.5c-0.4,0-0.7,0.4-0.7,0.8l0.6,7.4  C310.2,491.6,310.6,491.9,311.1,491.9L311.1,491.9z">
                    </path>
                    <path fill="#C8C8C8"
                        d="M306,492c0.4,0,0.8-0.3,0.8-0.8l0.2-7.5c0-0.4-0.3-0.8-0.8-0.8h-0.5c-0.4,0-0.8,0.3-0.8,0.8l0.2,7.5  C305.2,491.7,305.5,492,306,492L306,492z">
                    </path>
                    <path fill="#C8C8C8"
                        d="M301,491.9c0.4,0,0.8-0.3,0.8-0.7l0.6-7.4c0-0.4-0.3-0.8-0.7-0.8h-0.5c-0.4,0-0.8,0.3-0.8,0.7l-0.2,7.5  C300.2,491.5,300.5,491.8,301,491.9L301,491.9z">
                    </path>
                    <path fill="#C8C8C8"
                        d="M296,491.5c0.4,0,0.8-0.3,0.8-0.7l1-7.4c0-0.4-0.3-0.8-0.7-0.8h-0.5c-0.4,0-0.8,0.3-0.8,0.7l-0.6,7.4  C295.2,491,295.5,491.4,296,491.5L296,491.5z">
                    </path>
                    <path fill="#C8C8C8"
                        d="M291,490.8c0.4,0.1,0.8-0.2,0.9-0.6l1.4-7.3c0.1-0.4-0.2-0.8-0.6-0.9l-0.5-0.1c-0.4-0.1-0.8,0.2-0.9,0.6  l-1,7.4C290.2,490.4,290.5,490.7,291,490.8L291,490.8z">
                    </path>
                    <path fill="#C8C8C8"
                        d="M286.1,489.9c0.4,0.1,0.8-0.2,0.9-0.6l1.7-7.3c0.1-0.4-0.2-0.8-0.6-0.9l-0.5-0.1c-0.4-0.1-0.8,0.2-0.9,0.6  l-1.4,7.3C285.3,489.4,285.6,489.8,286.1,489.9L286.1,489.9z">
                    </path>
                    <path fill="#C8C8C8"
                        d="M281.2,488.7c0.4,0.1,0.8-0.1,0.9-0.5l2.1-7.2c0.1-0.4-0.1-0.8-0.5-0.9l-0.4-0.1c-0.4-0.1-0.8,0.1-0.9,0.5  l-1.7,7.3C280.5,488.2,280.7,488.6,281.2,488.7L281.2,488.7z">
                    </path>
                    <path fill="#C8C8C8"
                        d="M276.4,487.3c0.4,0.1,0.8-0.1,1-0.5l2.5-7c0.1-0.4-0.1-0.8-0.5-1l-0.4-0.1c-0.4-0.1-0.8,0.1-1,0.5l-2.1,7.2  C275.7,486.7,275.9,487.2,276.4,487.3L276.4,487.3z">
                    </path>
                    <path fill="#C8C8C8"
                        d="M271.6,485.6c0.4,0.2,0.8,0,1-0.4l2.9-6.9c0.2-0.4,0-0.8-0.4-1l-0.4-0.2c-0.4-0.2-0.8,0-1,0.4l-2.5,7  C271,485,271.2,485.5,271.6,485.6L271.6,485.6z">
                    </path>
                    <path fill="#C8C8C8"
                        d="M267,483.7c0.4,0.2,0.8,0,1-0.4l3.2-6.7c0.2-0.4,0-0.8-0.4-1l-0.4-0.2c-0.4-0.2-0.8,0-1,0.4l-2.9,6.9  C266.4,483.1,266.5,483.5,267,483.7L267,483.7z">
                    </path>
                    <path fill="#C8C8C8"
                        d="M262.5,481.6c0.4,0.2,0.8,0,1-0.3l3.6-6.6c0.2-0.4,0-0.8-0.3-1l-0.4-0.2c-0.4-0.2-0.8,0-1,0.3l-3.2,6.7  C261.9,480.9,262,481.3,262.5,481.6L262.5,481.6z">
                    </path>
                    <path fill="#C8C8C8"
                        d="M258,479.2c0.4,0.2,0.8,0.1,1-0.3l3.9-6.4c0.2-0.4,0.1-0.8-0.3-1l-0.4-0.2c-0.4-0.2-0.8-0.1-1,0.3l-3.6,6.6  C257.5,478.4,257.6,478.9,258,479.2L258,479.2z">
                    </path>
                    <path fill="#C8C8C8"
                        d="M253.7,476.5c0.4,0.2,0.8,0.1,1.1-0.2l4.2-6.2c0.2-0.4,0.1-0.8-0.2-1.1l-0.4-0.3c-0.4-0.2-0.8-0.1-1.1,0.2  l-3.9,6.4C253.2,475.8,253.3,476.3,253.7,476.5L253.7,476.5z">
                    </path>
                    <path fill="#C8C8C8"
                        d="M249.6,473.7c0.3,0.2,0.8,0.2,1.1-0.2l4.5-5.9c0.2-0.3,0.2-0.8-0.2-1.1l-0.4-0.3c-0.3-0.2-0.8-0.2-1.1,0.2  l-4.2,6.2C249.1,472.9,249.2,473.4,249.6,473.7L249.6,473.7z">
                    </path>
                    <path fill="#C8C8C8"
                        d="M245.6,470.6c0.3,0.3,0.8,0.2,1.1-0.1l4.8-5.7c0.3-0.3,0.2-0.8-0.1-1.1l-0.4-0.3c-0.3-0.3-0.8-0.2-1.1,0.1  l-4.5,5.9C245.2,469.8,245.2,470.3,245.6,470.6L245.6,470.6z">
                    </path>
                    <path fill="#C8C8C8"
                        d="M241.8,467.4c0.3,0.3,0.8,0.3,1.1-0.1l5.1-5.4c0.3-0.3,0.3-0.8-0.1-1.1l-0.3-0.3c-0.3-0.3-0.8-0.3-1.1,0.1  l-4.9,5.7C241.4,466.5,241.4,467,241.8,467.4L241.8,467.4z">
                    </path>
                    <path fill="#C8C8C8"
                        d="M238.1,463.9c0.3,0.3,0.8,0.3,1.1,0l5.4-5.1c0.3-0.3,0.3-0.8,0-1.1l-0.3-0.3c-0.3-0.3-0.8-0.3-1.1,0  l-5.1,5.4C237.8,463.1,237.8,463.6,238.1,463.9L238.1,463.9z">
                    </path>
                    <path fill="#C8C8C8"
                        d="M234.7,460.3c0.3,0.3,0.8,0.3,1.1,0.1l5.7-4.9c0.3-0.3,0.3-0.8,0.1-1.1l-0.3-0.3c-0.3-0.3-0.8-0.3-1.1-0.1  l-5.4,5.1C234.4,459.4,234.3,459.9,234.7,460.3L234.7,460.3z">
                    </path>
                    <path fill="#C8C8C8"
                        d="M231.4,456.4c0.3,0.3,0.8,0.4,1.1,0.1l5.9-4.5c0.3-0.3,0.4-0.8,0.1-1.1l-0.3-0.4c-0.3-0.3-0.8-0.4-1.1-0.1  l-5.7,4.8C231.2,455.6,231.1,456.1,231.4,456.4L231.4,456.4z">
                    </path>
                    <path fill="#C8C8C8"
                        d="M228.4,452.5c0.2,0.3,0.7,0.4,1.1,0.2l6.2-4.2c0.3-0.2,0.4-0.7,0.2-1.1l-0.3-0.4c-0.2-0.3-0.7-0.4-1.1-0.2  l-5.9,4.5C228.1,451.6,228.1,452.1,228.4,452.5L228.4,452.5z">
                    </path>
                    <path fill="#C8C8C8"
                        d="M225.5,448.3c0.2,0.4,0.7,0.5,1.1,0.2l6.4-3.9c0.4-0.2,0.5-0.7,0.2-1.1l-0.3-0.4c-0.2-0.4-0.7-0.5-1.1-0.2  l-6.2,4.2C225.3,447.4,225.2,447.9,225.5,448.3L225.5,448.3z">
                    </path>
                    <path fill="#C8C8C8"
                        d="M222.9,444c0.2,0.4,0.7,0.5,1,0.3l6.6-3.6c0.4-0.2,0.5-0.7,0.3-1l-0.2-0.4c-0.2-0.4-0.7-0.5-1-0.3l-6.4,3.9  C222.8,443.1,222.6,443.6,222.9,444L222.9,444z">
                    </path>
                    <path fill="#C8C8C8"
                        d="M220.5,439.6c0.2,0.4,0.7,0.5,1,0.3l6.7-3.2c0.4-0.2,0.5-0.7,0.3-1l-0.2-0.4c-0.2-0.4-0.7-0.5-1-0.3  l-6.6,3.6C220.4,438.7,220.3,439.2,220.5,439.6L220.5,439.6z">
                    </path>
                    <path fill="#C8C8C8"
                        d="M218.3,435.1c0.2,0.4,0.6,0.6,1,0.4l6.9-2.9c0.4-0.2,0.6-0.6,0.4-1l-0.2-0.4c-0.2-0.4-0.6-0.6-1-0.4  l-6.7,3.2C218.3,434.2,218.1,434.6,218.3,435.1L218.3,435.1z">
                    </path>
                    <path fill="#C8C8C8"
                        d="M216.4,430.4c0.2,0.4,0.6,0.6,1,0.4l7-2.5c0.4-0.2,0.6-0.6,0.4-1l-0.2-0.4c-0.2-0.4-0.6-0.6-1-0.4l-6.9,2.9  C216.4,429.5,216.2,430,216.4,430.4L216.4,430.4z">
                    </path>
                    <path fill="#C8C8C8"
                        d="M214.7,425.7c0.1,0.4,0.6,0.6,1,0.5l7.2-2.1c0.4-0.1,0.6-0.6,0.5-1l-0.1-0.4c-0.1-0.4-0.6-0.6-1-0.5l-7,2.5  C214.8,424.8,214.6,425.2,214.7,425.7L214.7,425.7z">
                    </path>
                    <path fill="#C8C8C8"
                        d="M213.3,420.9c0.1,0.4,0.5,0.7,0.9,0.5l7.3-1.7c0.4-0.1,0.7-0.5,0.5-0.9l-0.1-0.4c-0.1-0.4-0.5-0.7-0.9-0.5  l-7.2,2.1C213.4,420,213.2,420.4,213.3,420.9L213.3,420.9z">
                    </path>
                    <path fill="#C8C8C8"
                        d="M212.1,416c0.1,0.4,0.5,0.7,0.9,0.6l7.3-1.4c0.4-0.1,0.7-0.5,0.6-0.9l-0.1-0.5c-0.1-0.4-0.5-0.7-0.9-0.6  l-7.2,1.8C212.3,415.1,212,415.5,212.1,416L212.1,416z">
                    </path>
                    <path fill="#C8C8C8"
                        d="M211.2,411.1c0.1,0.4,0.5,0.7,0.9,0.6l7.4-1c0.4-0.1,0.7-0.5,0.6-0.9l-0.1-0.5c-0.1-0.4-0.5-0.7-0.9-0.6  l-7.3,1.4C211.4,410.2,211.1,410.6,211.2,411.1L211.2,411.1z">
                    </path>
                    <path fill="#C8C8C8"
                        d="M210.5,406.1c0,0.4,0.4,0.7,0.8,0.7l7.4-0.6c0.4,0,0.7-0.4,0.7-0.8v-0.5c0-0.4-0.4-0.7-0.8-0.7l-7.4,1  C210.8,405.2,210.5,405.6,210.5,406.1L210.5,406.1z">
                    </path>
                    <path fill="#C8C8C8"
                        d="M210.1,401.1c0,0.4,0.4,0.8,0.8,0.7l7.5-0.2c0.4,0,0.7-0.4,0.7-0.8v-0.5c0-0.4-0.4-0.7-0.8-0.7l-7.4,0.6  C210.4,400.2,210.1,400.6,210.1,401.1L210.1,401.1z">
                    </path>
                    <path fill="#C8C8C8"
                        d="M210,396c0,0.4,0.3,0.8,0.8,0.8l7.4,0.2c0.5,0,0.8-0.3,0.8-0.8v-0.5c0-0.4-0.3-0.7-0.8-0.7l-7.5,0.2  C210.3,395.2,210,395.5,210,396L210,396z">
                    </path>
                    <path fill="#C8C8C8"
                        d="M210.1,391c0,0.4,0.3,0.8,0.7,0.8l7.4,0.6c0.4,0,0.8-0.3,0.8-0.7v-0.5c0-0.4-0.3-0.8-0.7-0.8l-7.5-0.2  C210.5,390.2,210.2,390.5,210.1,391L210.1,391z">
                    </path>
                    <path fill="#C8C8C8"
                        d="M210.5,386c0,0.4,0.3,0.8,0.7,0.8l7.4,1c0.4,0,0.8-0.3,0.8-0.7v-0.5c0-0.4-0.3-0.8-0.7-0.8l-7.4-0.6  C211,385.2,210.6,385.5,210.5,386L210.5,386z">
                    </path>
                    <path fill="#C8C8C8"
                        d="M211.2,381c-0.1,0.4,0.2,0.8,0.6,0.9l7.3,1.4c0.5,0,0.9-0.3,0.9-0.7l0.1-0.5c0.1-0.4-0.2-0.8-0.6-0.9l-7.4-1  C211.6,380.2,211.3,380.5,211.2,381L211.2,381z">
                    </path>
                    <path fill="#C8C8C8"
                        d="M212.1,376.1c-0.1,0.4,0.2,0.8,0.6,0.9l7.3,1.7c0.4,0.1,0.8-0.2,0.9-0.6l0.1-0.5c0.1-0.4-0.2-0.8-0.6-0.9  l-7.4-1.3C212.6,375.3,212.2,375.6,212.1,376.1L212.1,376.1z">
                    </path>
                    <path fill="#C8C8C8"
                        d="M213.3,371.2c-0.1,0.4,0.1,0.8,0.5,0.9l7.2,2.1c0.4,0.1,0.8-0.1,0.9-0.5l0.1-0.4c0.1-0.4-0.1-0.8-0.5-0.9  l-7.3-1.7C213.8,370.5,213.4,370.7,213.3,371.2L213.3,371.2z">
                    </path>
                    <path fill="#C8C8C8"
                        d="M214.7,366.4c-0.1,0.4,0.1,0.8,0.5,1l7,2.5c0.4,0.1,0.8-0.1,1-0.5l0.1-0.4c0.1-0.4-0.1-0.8-0.5-1l-7.2-2.1  C215.3,365.7,214.8,365.9,214.7,366.4L214.7,366.4z">
                    </path>
                    <path fill="#C8C8C8"
                        d="M216.4,361.6c-0.2,0.4,0,0.8,0.4,1l6.9,2.9c0.4,0.2,0.8,0,1-0.4l0.2-0.4c0.2-0.4,0-0.8-0.4-1l-7-2.5  C217,361,216.5,361.2,216.4,361.6L216.4,361.6z">
                    </path>
                    <path fill="#C8C8C8"
                        d="M218.3,357c-0.2,0.4,0,0.8,0.4,1l6.7,3.2c0.4,0.2,0.8,0,1-0.4l0.2-0.4c0.2-0.4,0-0.8-0.4-1l-6.9-2.9  C218.9,356.4,218.5,356.5,218.3,357L218.3,357z">
                    </path>
                    <path fill="#C8C8C8"
                        d="M220.4,352.5c-0.2,0.4,0,0.8,0.3,1l6.6,3.6c0.4,0.2,0.8,0,1-0.3l0.2-0.4c0.2-0.4,0-0.8-0.3-1l-6.7-3.4  C221.1,351.9,220.7,352,220.4,352.5L220.4,352.5z">
                    </path>
                    <path fill="#C8C8C8"
                        d="M222.8,348c-0.2,0.4-0.1,0.8,0.3,1l6.4,3.9c0.4,0.2,0.8,0.1,1-0.3l0.2-0.4c0.2-0.4,0.1-0.8-0.3-1l-6.6-3.6  C223.6,347.5,223.1,347.6,222.8,348L222.8,348z">
                    </path>
                    <path fill="#C8C8C8"
                        d="M225.5,343.7c-0.2,0.4-0.1,0.8,0.2,1.1l6.2,4.2c0.4,0.2,0.8,0.1,1.1-0.2l0.3-0.4c0.2-0.4,0.1-0.8-0.2-1.1  l-6.4-3.9C226.2,343.2,225.7,343.3,225.5,343.7L225.5,343.7z">
                    </path>
                    <path fill="#C8C8C8"
                        d="M228.3,339.6c-0.2,0.3-0.2,0.8,0.2,1.1l5.9,4.5c0.3,0.2,0.8,0.2,1.1-0.2l0.3-0.4c0.2-0.3,0.2-0.8-0.2-1.1  l-6.2-4.2C229.1,339.1,228.6,339.2,228.3,339.6L228.3,339.6z">
                    </path>
                    <path fill="#C8C8C8"
                        d="M231.4,335.6c-0.3,0.3-0.2,0.8,0.1,1.1l5.7,4.8c0.3,0.3,0.8,0.2,1.1-0.1l0.3-0.4c0.3-0.3,0.2-0.8-0.1-1.1  l-5.9-4.5C232.2,335.2,231.7,335.2,231.4,335.6L231.4,335.6z">
                    </path>
                    <path fill="#C8C8C8"
                        d="M234.6,331.8c-0.3,0.3-0.3,0.8,0.1,1.1l5.4,5.1c0.3,0.3,0.8,0.3,1.1-0.1l0.3-0.3c0.3-0.3,0.3-0.8-0.1-1.1  l-5.7-4.9C235.5,331.4,235,331.4,234.6,331.8L234.6,331.8z">
                    </path>
                    <path fill="#C8C8C8"
                        d="M238.1,328.1c-0.3,0.3-0.3,0.8,0,1.1l5.1,5.4c0.3,0.3,0.8,0.3,1.1,0l0.3-0.3c0.3-0.3,0.3-0.8,0-1.1l-5.4-5.1  C238.9,327.8,238.4,327.8,238.1,328.1L238.1,328.1z">
                    </path>
                    <path fill="#C8C8C8"
                        d="M241.7,324.7c-0.3,0.3-0.3,0.8-0.1,1.1l4.9,5.7c0.3,0.3,0.8,0.3,1.1,0.1l0.3-0.3c0.3-0.3,0.3-0.8,0.1-1.1  l-5.1-5.4C242.6,324.4,242.1,324.3,241.7,324.7L241.7,324.7z">
                    </path>
                    <path fill="#C8C8C8"
                        d="M245.6,321.4c-0.3,0.3-0.4,0.8-0.1,1.1l4.5,5.9c0.3,0.3,0.8,0.4,1.1,0.1l0.4-0.3c0.3-0.3,0.4-0.8,0.1-1.1  l-4.8-5.7C246.4,321.2,245.9,321.1,245.6,321.4L245.6,321.4z">
                    </path>
                    <path fill="#C8C8C8"
                        d="M249.5,318.4c-0.3,0.2-0.4,0.7-0.2,1.1l4.2,6.2c0.2,0.3,0.7,0.4,1.1,0.2l0.4-0.3c0.3-0.2,0.4-0.7,0.2-1.1  l-4.5-5.9C250.4,318.1,249.9,318.1,249.5,318.4L249.5,318.4z">
                    </path>
                    <path fill="#C8C8C8"
                        d="M253.7,315.5c-0.4,0.2-0.5,0.7-0.2,1.1l3.9,6.4c0.2,0.4,0.7,0.5,1.1,0.2l0.4-0.3c0.4-0.2,0.5-0.7,0.2-1.1  l-4.2-6.2C254.6,315.3,254.1,315.2,253.7,315.5L253.7,315.5z">
                    </path>
                    <path fill="#C8C8C8"
                        d="M258,312.9c-0.4,0.2-0.5,0.7-0.3,1l3.6,6.6c0.2,0.4,0.7,0.5,1,0.3l0.4-0.2c0.4-0.2,0.5-0.7,0.3-1l-3.9-6.4  C258.9,312.8,258.4,312.6,258,312.9L258,312.9z">
                    </path>
                    <path fill="#C8C8C8"
                        d="M262.4,310.5c-0.4,0.2-0.5,0.7-0.3,1l3.2,6.7c0.2,0.4,0.7,0.5,1,0.3l0.4-0.2c0.4-0.2,0.5-0.7,0.3-1l-3.6-6.6  C263.3,310.4,262.8,310.3,262.4,310.5L262.4,310.5z">
                    </path>
                    <path fill="#C8C8C8"
                        d="M266.9,308.3c-0.4,0.2-0.6,0.6-0.4,1l2.9,6.9c0.2,0.4,0.6,0.6,1,0.4l0.4-0.2c0.4-0.2,0.6-0.6,0.4-1l-3.2-6.7  C267.8,308.3,267.4,308.1,266.9,308.3L266.9,308.3z">
                    </path>
                    <path fill="#C8C8C8"
                        d="M271.6,306.4c-0.4,0.2-0.6,0.6-0.4,1l2.5,7c0.2,0.4,0.6,0.6,1,0.4l0.4-0.2c0.4-0.2,0.6-0.6,0.4-1l-2.9-6.9  C272.5,306.4,272,306.2,271.6,306.4L271.6,306.4z">
                    </path>
                    <path fill="#C8C8C8"
                        d="M276.3,304.7c-0.4,0.1-0.6,0.6-0.5,1l2.1,7.2c0.1,0.4,0.6,0.6,1,0.5l0.4-0.1c0.4-0.1,0.6-0.6,0.5-1l-2.5-7  C277.2,304.8,276.8,304.6,276.3,304.7L276.3,304.7z">
                    </path>
                    <path fill="#C8C8C8"
                        d="M281.1,303.3c-0.4,0.1-0.7,0.5-0.5,0.9l1.7,7.3c0.1,0.4,0.5,0.7,0.9,0.5l0.4-0.1c0.4-0.1,0.7-0.5,0.5-0.9  l-2.1-7.2C282,303.4,281.6,303.2,281.1,303.3L281.1,303.3z">
                    </path>
                    <path fill="#C8C8C8"
                        d="M286,302.1c-0.4,0.1-0.7,0.5-0.6,0.9l1.4,7.3c0.1,0.4,0.5,0.7,0.9,0.6l0.5-0.1c0.4-0.1,0.7-0.5,0.6-0.9  l-1.8-7.2C286.9,302.3,286.5,302,286,302.1L286,302.1z">
                    </path>
                    <path fill="#C8C8C8"
                        d="M290.9,301.2c-0.4,0.1-0.7,0.5-0.6,0.9l1,7.4c0.1,0.4,0.5,0.7,0.9,0.6l0.5-0.1c0.4-0.1,0.7-0.5,0.6-0.9  l-1.4-7.3C291.8,301.4,291.4,301.1,290.9,301.2L290.9,301.2z">
                    </path>
                    <path fill="#C8C8C8"
                        d="M295.9,300.5c-0.4,0-0.7,0.4-0.7,0.8l0.6,7.4c0,0.4,0.4,0.7,0.8,0.7h0.5c0.4,0,0.7-0.4,0.7-0.8l-1-7.4  C296.8,300.8,296.4,300.5,295.9,300.5L295.9,300.5z">
                    </path>
                    <path fill="#C8C8C8"
                        d="M300.9,300.1c-0.4,0-0.8,0.4-0.7,0.8l0.2,7.5c0,0.4,0.4,0.7,0.8,0.7h0.5c0.4,0,0.7-0.4,0.7-0.8l-0.6-7.4  C301.8,300.4,301.4,300.1,300.9,300.1L300.9,300.1z">
                    </path>
                </svg>