<?xml version="1.0" encoding="utf-8"?>
<!-- Generator: Adobe Illustrator 16.0.0, SVG Export Plug-In . SVG Version: 6.00 Build 0)  -->
<!DOCTYPE svg PUBLIC "-//W3C//DTD SVG 1.1//EN" "http://www.w3.org/Graphics/SVG/1.1/DTD/svg11.dtd">
<svg version="1.1" id="Logo_xA0_Image_1_" xmlns="http://www.w3.org/2000/svg" xmlns:xlink="http://www.w3.org/1999/xlink" x="0px"
	 y="0px" width="105px" height="124px" viewBox="0 0 105 124" enable-background="new 0 0 105 124" xml:space="preserve">
<linearGradient id="SVGID_1_" gradientUnits="userSpaceOnUse" x1="14.5361" y1="19.5117" x2="80.9082" y2="85.8838">
	<stop  offset="0" style="stop-color:#00B0CA"/>
	<stop  offset="1" style="stop-color:#00549F"/>
</linearGradient>
<path fill="url(#SVGID_1_)" d="M52.464,0.988c-0.396,0-0.719,0.328-0.719,0.719l-0.185,16.16c0,0.397,0.323,0.725,0.721,0.725h0.438
	c0.396,0,0.719-0.327,0.719-0.725l-0.179-16.16c0-0.391-0.327-0.719-0.725-0.719H52.464z M46.339,1.397
	c-0.397,0.051-0.673,0.415-0.622,0.806l1.928,16.044c0.052,0.397,0.415,0.674,0.812,0.622l0.432-0.058
	c0.391-0.052,0.667-0.415,0.616-0.806L47.22,2.007c-0.052-0.392-0.42-0.674-0.812-0.622L46.339,1.397z M40.317,2.6
	c-0.38,0.104-0.61,0.501-0.513,0.881l4.007,15.658c0.103,0.38,0.5,0.61,0.886,0.506l0.42-0.115c0.385-0.098,0.61-0.495,0.507-0.881
	L41.267,3.089c-0.098-0.385-0.495-0.609-0.88-0.506L40.317,2.6z M34.509,4.575C34.14,4.73,33.962,5.15,34.118,5.519l6.016,14.996
	c0.149,0.368,0.575,0.541,0.938,0.392l0.403-0.167c0.369-0.149,0.541-0.576,0.392-0.944l-6.35-14.859
	c-0.155-0.362-0.575-0.541-0.944-0.385L34.509,4.575z M29.006,7.298c-0.346,0.195-0.466,0.639-0.271,0.984l7.927,14.081
	c0.196,0.346,0.639,0.467,0.985,0.265l0.374-0.219c0.346-0.196,0.461-0.639,0.266-0.985L30.047,7.522
	c-0.196-0.34-0.639-0.461-0.984-0.259L29.006,7.298z M23.899,10.711c-0.311,0.242-0.374,0.697-0.133,1.008l9.694,12.935
	c0.242,0.311,0.697,0.368,1.008,0.127l0.345-0.265c0.316-0.241,0.374-0.69,0.138-1.007L24.97,10.797
	c-0.242-0.311-0.697-0.374-1.013-0.132L23.899,10.711z M19.289,14.758c-0.283,0.282-0.283,0.742,0,1.024l11.3,11.554
	c0.277,0.277,0.737,0.277,1.019,0l0.306-0.311c0.282-0.282,0.282-0.737,0-1.019L20.359,14.712c-0.282-0.282-0.737-0.282-1.019,0
	L19.289,14.758z M15.247,19.38c-0.242,0.317-0.184,0.766,0.132,1.008l12.706,9.982c0.317,0.242,0.772,0.184,1.013-0.133l0.265-0.346
	c0.241-0.316,0.178-0.771-0.133-1.007l-12.929-9.694c-0.317-0.242-0.771-0.184-1.014,0.132L15.247,19.38z M11.839,24.487
	c-0.201,0.346-0.081,0.789,0.259,0.985l13.908,8.238c0.34,0.195,0.783,0.08,0.985-0.266l0.219-0.38
	c0.196-0.339,0.075-0.783-0.265-0.979l-14.087-7.927c-0.345-0.196-0.788-0.076-0.984,0.264L11.839,24.487z M9.128,29.997
	c-0.156,0.362,0.022,0.789,0.391,0.938l14.858,6.355c0.362,0.15,0.789-0.023,0.938-0.391l0.167-0.403
	c0.155-0.368-0.023-0.789-0.386-0.938l-15.002-6.021c-0.363-0.15-0.789,0.029-0.938,0.391L9.128,29.997z M7.159,35.811
	c-0.104,0.38,0.127,0.777,0.507,0.881l15.566,4.357c0.38,0.104,0.777-0.126,0.881-0.512l0.109-0.42
	c0.104-0.38-0.126-0.777-0.506-0.881L8.057,35.229c-0.38-0.103-0.778,0.126-0.881,0.513L7.159,35.811z M5.967,41.832
	c-0.052,0.391,0.224,0.754,0.616,0.806l15.998,2.292c0.392,0.051,0.76-0.225,0.812-0.623l0.058-0.431
	c0.046-0.392-0.23-0.754-0.622-0.807L6.785,41.141c-0.397-0.051-0.76,0.225-0.812,0.623L5.967,41.832z M5.57,47.958
	c0,0.397,0.322,0.719,0.72,0.719l16.159,0.185c0.397,0,0.72-0.323,0.72-0.72v-0.437c0-0.397-0.322-0.72-0.72-0.72L6.29,47.163
	c-0.397,0-0.72,0.328-0.72,0.725V47.958z M5.973,54.083c0.052,0.397,0.415,0.673,0.812,0.622l16.044-1.929
	c0.391-0.052,0.668-0.415,0.616-0.812l-0.052-0.431c-0.051-0.392-0.42-0.668-0.812-0.617L6.583,53.202
	c-0.392,0.052-0.668,0.414-0.616,0.812L5.973,54.083z M7.176,60.104c0.103,0.385,0.5,0.611,0.881,0.506l15.658-4
	c0.38-0.104,0.61-0.502,0.506-0.887l-0.109-0.421c-0.104-0.385-0.5-0.61-0.881-0.511L7.666,59.148c-0.38,0.103-0.61,0.5-0.507,0.887
	L7.176,60.104z M9.156,65.912c0.149,0.368,0.57,0.547,0.938,0.392l15.002-6.015c0.363-0.15,0.541-0.576,0.386-0.938l-0.167-0.403
	c-0.149-0.369-0.576-0.542-0.938-0.391l-14.858,6.35c-0.369,0.148-0.542,0.576-0.391,0.943L9.156,65.912z M11.874,71.416
	c0.202,0.346,0.639,0.467,0.984,0.265l14.087-7.922c0.34-0.195,0.461-0.638,0.259-0.983L26.991,62.4
	c-0.202-0.346-0.645-0.467-0.985-0.265l-13.902,8.238c-0.346,0.195-0.466,0.639-0.265,0.984L11.874,71.416z M15.287,76.522
	c0.242,0.317,0.697,0.375,1.014,0.133L29.23,66.96c0.311-0.241,0.374-0.696,0.133-1.007l-0.265-0.352
	c-0.241-0.312-0.696-0.375-1.013-0.132l-12.706,9.982c-0.316,0.24-0.374,0.696-0.132,1.013L15.287,76.522z M19.34,81.134
	c0.282,0.28,0.737,0.28,1.019,0l11.554-11.301c0.282-0.276,0.282-0.737,0-1.019l-0.306-0.307c-0.282-0.28-0.742-0.28-1.019,0
	l-11.3,11.556c-0.283,0.28-0.283,0.736,0,1.018L19.34,81.134z M23.957,85.173c0.316,0.243,0.771,0.186,1.013-0.132l9.982-12.705
	c0.242-0.315,0.178-0.771-0.138-1.013l-0.345-0.264c-0.311-0.242-0.766-0.185-1.008,0.132l-9.694,12.931
	c-0.241,0.314-0.178,0.771,0.139,1.013L23.957,85.173z M29.063,88.582c0.345,0.201,0.788,0.081,0.984-0.265l8.238-13.902
	c0.202-0.34,0.08-0.782-0.266-0.984l-0.374-0.218c-0.346-0.197-0.789-0.076-0.985,0.264l-7.92,14.087
	c-0.202,0.346-0.081,0.783,0.265,0.984L29.063,88.582z M34.572,91.294c0.369,0.156,0.789-0.024,0.944-0.392l6.35-14.857
	c0.149-0.364-0.023-0.79-0.392-0.944l-0.403-0.161c-0.362-0.156-0.788,0.022-0.938,0.385l-6.016,15.002
	c-0.156,0.362,0.022,0.79,0.391,0.938L34.572,91.294z M40.387,93.262c0.385,0.104,0.783-0.127,0.886-0.506l4.358-15.561
	c0.098-0.385-0.127-0.783-0.512-0.886l-0.42-0.11c-0.386-0.104-0.783,0.127-0.881,0.506l-4.007,15.659
	c-0.103,0.379,0.127,0.777,0.507,0.881L40.387,93.262z M46.408,94.46c0.397,0.045,0.76-0.23,0.812-0.622l2.292-15.997
	c0.052-0.392-0.23-0.761-0.627-0.812l-0.426-0.058c-0.397-0.046-0.76,0.23-0.812,0.622l-1.928,16.043
	c-0.052,0.391,0.23,0.761,0.622,0.811L46.408,94.46z M52.533,94.851c0.397,0,0.725-0.321,0.725-0.72l0.179-16.158
	c0-0.396-0.322-0.72-0.719-0.72H52.28c-0.397,0-0.721,0.323-0.721,0.72l0.185,16.158c0,0.398,0.323,0.72,0.719,0.72H52.533z
	 M58.658,94.447c0.397-0.05,0.674-0.412,0.622-0.811l-1.929-16.043c-0.052-0.392-0.414-0.675-0.812-0.622l-0.426,0.058
	c-0.397,0.051-0.675,0.42-0.622,0.812l2.291,15.997c0.046,0.392,0.414,0.667,0.806,0.617L58.658,94.447z M64.68,93.245
	c0.387-0.104,0.617-0.502,0.512-0.881l-4.006-15.659c-0.104-0.379-0.501-0.609-0.887-0.511l-0.42,0.115
	c-0.381,0.103-0.61,0.501-0.507,0.881l4.358,15.565c0.098,0.379,0.5,0.609,0.881,0.506L64.68,93.245z M70.492,91.265
	c0.363-0.148,0.543-0.568,0.392-0.938l-6.015-15.002c-0.155-0.362-0.575-0.541-0.943-0.385l-0.403,0.167
	c-0.368,0.148-0.541,0.574-0.392,0.938l6.356,14.857c0.148,0.367,0.573,0.54,0.938,0.392L70.492,91.265z M75.996,88.548
	c0.346-0.196,0.461-0.639,0.267-0.984L68.34,73.477c-0.202-0.34-0.644-0.461-0.989-0.264l-0.374,0.218
	c-0.346,0.202-0.461,0.645-0.265,0.984l8.238,13.902c0.194,0.346,0.638,0.466,0.983,0.265L75.996,88.548z M81.097,85.135
	c0.317-0.242,0.375-0.698,0.132-1.013l-9.687-12.931c-0.243-0.311-0.696-0.374-1.014-0.132l-0.346,0.264
	c-0.316,0.242-0.374,0.697-0.139,1.008l9.987,12.71c0.237,0.317,0.698,0.375,1.008,0.132L81.097,85.135z M85.708,81.081
	c0.283-0.281,0.283-0.737,0-1.018L74.415,68.508c-0.283-0.28-0.744-0.28-1.025,0l-0.305,0.307c-0.283,0.281-0.278,0.742,0,1.019
	l11.552,11.301c0.283,0.276,0.744,0.276,1.021,0L85.708,81.081z M89.754,76.465c0.243-0.316,0.181-0.772-0.132-1.013L76.913,65.47
	c-0.312-0.243-0.772-0.18-1.015,0.138l-0.265,0.346c-0.242,0.311-0.178,0.766,0.132,1.007l12.938,9.695
	c0.31,0.242,0.766,0.177,1.006-0.14L89.754,76.465z M93.163,71.358c0.196-0.346,0.081-0.789-0.265-0.984l-13.901-8.238
	c-0.346-0.202-0.79-0.081-0.992,0.265l-0.211,0.375c-0.201,0.346-0.081,0.788,0.257,0.983l14.087,7.922
	c0.346,0.202,0.79,0.081,0.984-0.265L93.163,71.358z M95.875,65.849c0.148-0.367-0.029-0.788-0.392-0.943l-14.857-6.35
	c-0.369-0.156-0.794,0.022-0.945,0.391l-0.166,0.403c-0.15,0.362,0.022,0.789,0.385,0.938l15.003,6.015
	c0.368,0.155,0.788-0.023,0.943-0.392L95.875,65.849z M97.843,60.035c0.099-0.386-0.127-0.784-0.511-0.887l-15.561-4.357
	c-0.387-0.099-0.782,0.132-0.889,0.511l-0.107,0.421c-0.104,0.385,0.127,0.783,0.506,0.881L96.94,60.61
	c0.38,0.104,0.775-0.126,0.881-0.506L97.843,60.035z M99.036,54.013c0.05-0.397-0.23-0.76-0.622-0.812l-16-2.292
	c-0.391-0.052-0.753,0.23-0.811,0.623l-0.051,0.431c-0.053,0.397,0.224,0.76,0.614,0.812l16.051,1.929
	c0.391,0.051,0.753-0.23,0.807-0.622L99.036,54.013z M99.432,47.888c0-0.397-0.321-0.719-0.72-0.725H53.225
	c-0.397,0-0.727,0.328-0.727,0.725v0.599c0,0.397,0.329,0.725,0.72,0.725l45.494-0.535c0.392,0,0.72-0.322,0.715-0.719
	L99.432,47.888z"/>
<path fill="#00549F" d="M13.29,115.289c0,0.017,0,1.886-0.04,2.347c-0.086,0.915-0.363,1.791-0.8,2.54
	c-0.45,0.782-1.094,1.449-1.854,1.939c-0.742,0.465-1.611,0.766-2.521,0.856c-0.265,0.029-0.529,0.041-0.783,0.041
	c-0.656,0-1.267-0.087-1.819-0.252c-0.875-0.255-1.675-0.721-2.326-1.349c-1.111-1.088-1.825-2.631-2.118-4.587
	c-0.236-1.676-0.196-3.26,0.121-4.829c0.19-0.877,0.472-1.676,0.857-2.384c0.449-0.812,1.047-1.51,1.739-2.009
	c0.553-0.411,1.738-1.09,3.448-1.09c1.624,0,2.976,0.456,4.024,1.354c0.639,0.54,1.215,1.277,1.606,2.071
	c0.115,0.237,0.138,0.502,0.052,0.749c-0.086,0.247-0.259,0.449-0.495,0.564c-0.449,0.226-1.036,0.04-1.283-0.403
	c-0.207-0.372-0.703-1.121-1.146-1.52c-0.501-0.461-1.48-0.996-2.602-0.996c-0.962,0-1.796,0.267-2.476,0.79
	c-1.123,0.845-1.583,2.239-1.779,3.269c-0.121,0.639-0.184,1.33-0.19,2.062c-0.005,0.593,0,1.358,0.104,2.089
	c0.132,1.049,0.5,2.506,1.485,3.502c0.806,0.827,2.084,1.243,3.379,1.099c1.249-0.132,2.343-0.84,2.936-1.905
	c0.293-0.502,0.466-1.088,0.518-1.75c0.018-0.226,0.012-1.013,0.012-1.342H7.487c-0.501,0-0.916-0.408-0.916-0.914
	c0-0.507,0.415-0.922,0.916-0.922h4.824C12.852,114.31,13.29,114.746,13.29,115.289 M56.557,118.27
	c-0.138-0.069-0.294-0.11-0.448-0.11c-0.368,0-0.702,0.209-0.875,0.53c-0.611,1.157-1.371,1.882-2.32,2.228
	c-0.438,0.161-0.932,0.247-1.438,0.247c-0.64,0-1.255-0.132-1.786-0.384c-0.92-0.432-1.664-1.296-2.083-2.437
	c-0.369-0.988-0.541-2.165-0.53-3.598c-0.011-1.433,0.167-2.606,0.541-3.591c0.426-1.135,1.168-1.992,2.09-2.419
	c0.455-0.219,1.019-0.351,1.577-0.38c0.576-0.023,1.112,0.058,1.647,0.248c0.5,0.185,0.949,0.473,1.329,0.852
	c0.392,0.379,0.708,0.823,0.962,1.354c0.224,0.466,0.823,0.68,1.29,0.459c0.488-0.224,0.702-0.805,0.472-1.301
	c-0.812-1.582-2.038-2.698-3.438-3.154c-0.621-0.214-1.334-0.329-2.066-0.329c-0.081,0-0.161,0.008-0.241,0.008
	c-0.83,0.021-1.612,0.194-2.32,0.511c-0.732,0.324-1.399,0.812-1.94,1.429c-0.5,0.576-0.91,1.25-1.203,2.004
	c-0.489,1.227-0.72,2.595-0.743,4.311c0.017,1.709,0.253,3.08,0.743,4.313c0.293,0.746,0.696,1.421,1.198,2.002
	c0.535,0.609,1.203,1.106,1.928,1.428c0.708,0.321,1.479,0.494,2.309,0.519c0.086,0.005,0.179,0.005,0.27,0.005
	c0.742,0,1.434-0.104,2.044-0.317c1.451-0.46,2.745-1.627,3.466-3.125C57.226,119.088,57.035,118.517,56.557,118.27 M95.719,111.42
	c-1.207,0-2.107,0.23-2.911,0.741c-0.766,0.502-1.123,0.934-1.123,1.358c0,0.271,0.098,0.439,0.242,0.609
	c0.144,0.156,0.367,0.255,0.598,0.255c0.127,0,0.461-0.033,0.782-0.334c0.667-0.604,1.251-0.934,2.4-0.934
	c1.773,0,2.563,0.737,2.563,2.396v0.749h-3.19c-2.44,0-3.955,1.277-3.955,3.339c0,0.914,0.316,1.773,0.881,2.354
	c0.725,0.737,1.699,1.054,3.242,1.054c1.363,0,2.191-0.26,3.022-0.984c0.017,0.219,0.058,0.355,0.16,0.523
	c0.156,0.26,0.461,0.415,0.795,0.415s0.639-0.155,0.799-0.415c0.14-0.235,0.169-0.42,0.169-0.828v-6.466
	C100.193,112.749,98.645,111.42,95.719,111.42z M98.271,118.817c0,0.886-0.168,1.461-0.525,1.807
	c-0.61,0.593-1.34,0.708-2.326,0.708c-1.615,0-2.4-0.571-2.4-1.744c0-1.191,0.756-1.803,2.239-1.803h3.013V118.817z M86.37,113.169
	c0.696,0,1.169,0.197,1.853,0.766c0.37,0.301,0.576,0.454,0.877,0.454c0.226,0,0.437-0.079,0.609-0.24
	c0.18-0.173,0.275-0.403,0.275-0.629c0-0.478-0.297-0.736-0.84-1.161c-0.845-0.668-1.651-0.938-2.774-0.938
	c-3.149,0-5.026,2.169-5.026,5.796c0,3.574,1.923,5.792,5.026,5.792c1.106,0,1.963-0.288,2.774-0.927
	c0.461-0.353,0.84-0.679,0.84-1.169c0-0.226-0.096-0.456-0.28-0.634c-0.168-0.16-0.387-0.242-0.604-0.242
	c-0.313,0-0.617,0.23-0.882,0.461c-0.638,0.56-1.128,0.761-1.848,0.761c-1.042,0-1.849-0.398-2.4-1.169
	c-0.502-0.703-0.691-1.51-0.691-2.873c0-1.375,0.189-2.182,0.687-2.885C84.518,113.561,85.323,113.169,86.37,113.169
	 M74.731,112.495c0.782,0.766,1.186,1.836,1.186,3.185v6.039c0,0.42-0.041,0.603-0.168,0.823c-0.156,0.26-0.473,0.42-0.799,0.42
	c-0.341,0-0.663-0.168-0.802-0.42c-0.125-0.221-0.161-0.403-0.161-0.823v-5.758c0-1.824-0.886-2.792-2.556-2.792
	c-1.656,0-2.607,1.018-2.607,2.792v5.758c0,0.42-0.04,0.603-0.168,0.823c-0.156,0.26-0.47,0.42-0.799,0.42s-0.646-0.16-0.795-0.415
	c-0.132-0.226-0.168-0.408-0.168-0.828v-9.011c0-0.407,0.024-0.593,0.168-0.823c0.156-0.259,0.461-0.42,0.795-0.42
	c0.333,0,0.639,0.161,0.799,0.42c0.123,0.197,0.156,0.363,0.168,0.668c0.783-0.742,1.796-1.133,2.94-1.133
	C72.991,111.42,74.012,111.794,74.731,112.495 M80.137,107.793c0,0.691-0.564,1.255-1.255,1.255c-0.691,0-1.256-0.563-1.256-1.255
	s0.564-1.256,1.256-1.256C79.572,106.537,80.137,107.102,80.137,107.793 M78.882,111.465c-0.334,0-0.639,0.161-0.802,0.42
	c-0.137,0.23-0.166,0.416-0.166,0.823v9.011c0,0.408,0.029,0.598,0.166,0.828c0.163,0.26,0.468,0.415,0.802,0.415
	c0.333,0,0.638-0.155,0.799-0.415c0.14-0.235,0.168-0.42,0.168-0.828v-9.011c0-0.407-0.028-0.593-0.168-0.823
	C79.52,111.626,79.215,111.465,78.882,111.465 M63.926,106.537c-0.691,0-1.256,0.564-1.256,1.256s0.564,1.255,1.256,1.255
	c0.696,0,1.261-0.563,1.261-1.255S64.622,106.537,63.926,106.537 M64.727,111.885c0.143,0.23,0.167,0.416,0.167,0.823v9.011
	c0,0.408-0.024,0.598-0.167,0.828c-0.156,0.26-0.461,0.415-0.801,0.415c-0.334,0-0.639-0.155-0.795-0.415
	c-0.144-0.23-0.166-0.42-0.166-0.828v-9.011c0-0.407,0.022-0.593,0.166-0.823c0.156-0.259,0.461-0.42,0.795-0.42
	C64.266,111.465,64.57,111.626,64.727,111.885 M103.956,106.953c-0.16-0.255-0.465-0.416-0.799-0.416s-0.639,0.161-0.795,0.416
	c-0.144,0.234-0.173,0.42-0.173,0.828v13.938c0,0.408,0.029,0.593,0.173,0.828c0.156,0.26,0.461,0.415,0.795,0.415
	s0.639-0.155,0.799-0.415c0.145-0.235,0.168-0.42,0.168-0.828v-13.938C104.124,107.373,104.101,107.188,103.956,106.953
	 M60.795,106.953c0.144,0.234,0.166,0.42,0.166,0.828v13.938c0,0.408-0.022,0.598-0.166,0.828c-0.156,0.26-0.461,0.415-0.801,0.415
	c-0.335,0-0.64-0.155-0.795-0.415c-0.144-0.23-0.166-0.42-0.166-0.828v-13.938c0-0.408,0.022-0.594,0.166-0.828
	c0.155-0.255,0.46-0.416,0.795-0.416C60.334,106.537,60.639,106.698,60.795,106.953 M39.511,121.27
	c-0.195-0.127-0.402-0.144-0.766-0.144h-4.835l5.595-7.813c0.27-0.387,0.351-0.581,0.351-0.881c0-0.293-0.132-0.535-0.368-0.696
	c-0.248-0.161-0.547-0.185-0.835-0.185h-5.814c-0.362,0-0.564,0.023-0.766,0.148c-0.247,0.168-0.374,0.42-0.374,0.732
	c0,0.31,0.127,0.56,0.38,0.725c0.196,0.127,0.397,0.151,0.76,0.151h4.508l-5.578,7.798c-0.282,0.387-0.363,0.584-0.363,0.881
	c0,0.288,0.138,0.543,0.374,0.699c0.225,0.17,0.535,0.189,0.823,0.189h6.142c0.363,0,0.57-0.024,0.766-0.151
	c0.248-0.166,0.38-0.413,0.38-0.725C39.891,121.69,39.759,121.436,39.511,121.27 M27.987,113.106v6.608
	c0,0.979,0.426,1.449,1.306,1.449c0.392,0,0.628,0.053,0.807,0.163c0.247,0.154,0.374,0.396,0.374,0.696
	c0,0.293-0.126,0.535-0.368,0.691c-0.184,0.115-0.426,0.161-0.812,0.161h-0.287c-1.791,0-2.954-1.222-2.954-3.108v-6.661h-0.622
	c-0.305,0-0.501-0.023-0.673-0.139c-0.225-0.127-0.34-0.346-0.34-0.639c0-0.295,0.115-0.506,0.345-0.646
	c0.167-0.108,0.363-0.132,0.668-0.132h0.622v-2.216c0-0.403,0.029-0.593,0.173-0.823c0.155-0.259,0.46-0.42,0.794-0.42
	c0.334,0,0.639,0.161,0.8,0.42c0.144,0.23,0.167,0.42,0.167,0.823v2.216h1.474c0.305,0,0.506,0.023,0.679,0.139
	c0.219,0.133,0.333,0.344,0.333,0.639c0,0.293-0.115,0.512-0.345,0.644c-0.162,0.11-0.363,0.134-0.668,0.134H27.987z M23.79,117.521
	c0.265-0.271,0.265-0.643,0.265-0.845c-0.023-3.189-1.859-5.256-4.674-5.256c-2.942,0-4.692,2.169-4.692,5.796
	c0,3.737,1.762,5.792,4.974,5.792c1.1,0,2.102-0.23,2.821-0.658c0.818-0.506,1.215-0.955,1.215-1.38
	c0-0.448-0.403-0.859-0.841-0.859c-0.299,0-0.501,0.128-0.858,0.433c-0.742,0.629-1.646,0.761-2.268,0.761
	c-1.975,0-3.08-1.256-3.126-3.528h6.361C23.231,117.775,23.531,117.775,23.79,117.521z M16.611,116.249
	c0.041-0.701,0.115-1.066,0.328-1.589c0.392-0.96,1.325-1.554,2.441-1.554c1.128,0,2.043,0.581,2.441,1.554
	c0.218,0.53,0.293,0.893,0.328,1.589H16.611z"/>
</svg>
